# AST/ASF file generated using VICON BodyLanguage
# -----------------------------------------------
:version 1.10
:name VICON
:units
  mass 1.0
  length 0.45
  angle deg
:documentation
   .ast/.asf automatically generated from VICON data using
   VICON BodyBuilder and BodyLanguage model FoxedUp or BRILLIANT.MOD
:root
   order TX TY TZ RX RY RZ
   axis XYZ
   position 0 0 0  
   orientation 0 0 0 
:bonedata
  begin
     id 1 
     name lhipjoint
     direction 0.584852 -0.759097 0.285867 
     length 2.43633 
     axis 0 0 0  XYZ
  end
  begin
     id 2 
     name lfemur
     direction 0.34202 -0.939693 0  
     length 7.14704  
     axis 0 0 20  XYZ
    dof rx ry rz
    limits (-160.0 20.0)
           (-70.0 70.0)
           (-60.0 70.0)
  end
  begin
     id 3 
     name ltibia
     direction 0.342022 -0.939692 0   
     length 7.68483   
     axis 0 0 20   XYZ
    dof rx
    limits (-10.0 170.0)
  end
  begin
     id 4 
     name lfoot
     direction 0.0999605 -0.274639 0.956337   
     length 2.40452   
     axis -90 7.62852e-016 20   XYZ
    dof rx rz
    limits (-45.0 90.0)
           (-70.0 20.0)
  end
  begin
     id 5 
     name ltoes
     direction 1.53468e-011 -4.21881e-011 1   
     length 1.19837   
     axis -90 7.62852e-016 20   XYZ
    dof rx
    limits (-90.0 20.0)
  end
  begin
     id 6 
     name rhipjoint
     direction -0.569886 -0.769002 0.289597   
     length 2.40495  
     axis 0 0 0  XYZ 
  end
  begin
     id 7 
     name rfemur
     direction -0.34202 -0.939693 0   
     length 7.45086   
     axis 0 0 -20   XYZ
    dof rx ry rz
    limits (-160.0 20.0)
           (-70.0 70.0)
           (-70.0 60.0)
  end
  begin
     id 8 
     name rtibia
     direction -0.34202 -0.939693 0   
     length 7.76831   
     axis 0 0 -20   XYZ
    dof rx
    limits (-10.0 170.0)
 end
 begin
     id 9 
     name rfoot
     direction -0.0798572 -0.219406 0.97236   
     length 2.35911  
     axis -90 -7.62852e-016 -20   XYZ
    dof rx rz
    limits (-45.0 90.0)
           (-20.0 70.0)
  end
  begin
     id 10 
     name rtoes
     direction -1.53469e-011 -4.21728e-011 1   
     length 1.18261   
     axis -90 -7.62852e-016 -20   XYZ
    dof rx
    limits (-90.0 20.0)
  end
  begin
     id 11 
     name lowerback
     direction 0.0242088 0.999437 0.0232389   
     length 2.1561   
     axis 0 0 0   XYZ
    dof rx ry rz
    limits (-20.0 45.0)
           (-30.0 30.0)
           (-30.0 30.0)
  end
  begin
     id 12 
     name upperback
     direction -0.0356893 0.999013 -0.0264323   
     length 2.14431   
     axis 0 0 0   XYZ
    dof rx ry rz
    limits (-20.0 45.0)
           (-30.0 30.0)
           (-30.0 30.0)
  end
  begin
     id 13 
     name thorax
     direction -0.0472163 0.998194 -0.0371284   
     length 2.16169   
     axis 0 0 0   XYZ
    dof rx ry rz
    limits (-20.0 45.0)
           (-30.0 30.0)
           (-30.0 30.0)
  end
  begin
     id 14 
     name lowerneck
     direction 0.00863244 0.999921 0.00911972   
     length 1.58651   
     axis 0 0 0   XYZ
    dof rx ry rz
    limits (-20.0 45.0)
           (-30.0 30.0)
           (-30.0 30.0)
  end
  begin
     id 15 
     name upperneck
     direction 0.149523 0.979068 -0.138086   
     length 1.57486   
     axis 0 0 0   XYZ
    dof rx ry rz
    limits (-20.0 45.0)
           (-30.0 30.0)
           (-30.0 30.0)
  end
  begin
     id 16
     name head
     direction 0.0445219 0.997708 -0.0509576  
     length 1.6019  
     axis 0 0 0   XYZ
    dof rx ry rz
    limits (-20.0 45.0)
           (-30.0 30.0)
           (-30.0 30.0)
  end
  begin
     id 17 
     name lclavicle
     direction 0.911271 0.381667 -0.154644  
     length 3.80848  
     axis 0 0 0   XYZ
    dof ry rz
    limits (-20.0 10.0)
           (0.0 20.0)
  end
  begin
     id 18 
     name lhumerus
     direction 1 -4.49003e-011 2.1308e-027   
     length 5.19069   
     axis 180 -30 -90   XYZ
    dof rx ry rz
    limits (-60.0 90.0)
           (-90.0 90.0)
           (-90.0 90.0)
  end
  begin
     id 19
     name lradius
     direction 1 -4.48914e-011 4.01554e-027   
     length 3.30016   
     axis 180 -30 -90   XYZ
    dof rx
    limits (-10.0 170.0)
  end
  begin
     id 20
     name lwrist
     direction 1 -4.49003e-011 1.1934e-026   
     length 1.65008   
     axis -8.46377e-015 90 90   XYZ
    dof ry
    limits (-180.0 0.0)
 end
  begin
     id 21 
     name lhand
     direction 1 -4.49034e-011 2.38659e-026   
     length 0.707698   
     axis -1.52313e-014 90 90   XYZ
    dof rx rz
    limits (-90.0 90.0)
           (-45.0 45.0)
  end
  begin
     id 22 
     name lfingers
     direction 1 -4.48691e-011 4.77775e-026   
     length 0.570564   
     axis -3.04623e-014 90 90   XYZ
    dof rx
    limits (0.0 90.0)
  end
  begin
     id 23
     name lthumb
     direction 0.707107 -6.34832e-011 0.707107   
     length 0.819219   
     axis -90 45 -1.62303e-014   XYZ
    dof rx rz
    limits (-45.0 45.0)
           (-45.0 45.0)
  end
  begin
     id 24 
     name rclavicle
     direction -0.815579 0.573708 -0.0754329   
     length 3.54371  
     axis 0 0 0   XYZ 
    dof ry rz
    limits (-10.0 20.0)
           (-20.0 0.0)
  end
  begin
     id 25 
     name rhumerus
     direction -1 -4.48956e-011 3.05351e-028  
     length 5.23924   
     axis 180 30 90   XYZ
    dof rx ry rz
    limits (-90.0 60.0)
           (-90.0 90.0)
           (-90.0 90.0)
  end
  begin
     id 26 
     name rradius
     direction -1 -4.49013e-011 3.53849e-027   
     length 3.32953   
     axis 180 30 90   XYZ
    dof rx
    limits (-10.0 170.0)
  end
  begin
     id 27 
     name rwrist
     direction -1 -4.48901e-011 1.19374e-026   
     length 1.66477   
     axis -8.46377e-015 -90 -90   XYZ
    dof ry
    limits (-180.0 0.0)
  end
  begin
     id 28
     name rhand
     direction -1 -4.48877e-011 2.38764e-026   
     length 0.607414   
     axis -1.52313e-014 -90 -90   XYZ
    dof rx rz
    limits (-90.0 90.0)
           (-45.0 45.0)
  end
  begin
     id 29
     name rfingers
     direction -1 -4.48882e-011 4.77521e-026   
     length 0.489712   
     axis -3.04623e-014 -90 -90   XYZ
    dof rx
    limits (0.0 90.0)
  end
  begin
     id 30
     name rthumb
     direction -0.707107 -6.34974e-011 0.707107   
     length 0.703132   
     axis -90 -45 1.62303e-014   XYZ
    dof rx rz
    limits (-45.0 45.0)
           (-45.0 45.0)
  end
:hierarchy
  begin
    root lhipjoint rhipjoint lowerback
    lhipjoint lfemur
    lfemur ltibia
    ltibia lfoot
    lfoot ltoes
    rhipjoint rfemur
    rfemur rtibia
    rtibia rfoot
    rfoot rtoes
    lowerback upperback
    upperback thorax
    thorax lowerneck lclavicle rclavicle
    lowerneck upperneck
    upperneck head
    lclavicle lhumerus
    lhumerus lradius
    lradius lwrist
    lwrist lhand lthumb
    lhand lfingers
    rclavicle rhumerus
    rhumerus rradius
    rradius rwrist
    rwrist rhand rthumb
    rhand rfingers
  end

#!OML:ASF E:\VariousWalksJay\Project 1\Capture day 1\Session 1\Actor2.ASF
:FULLY-SPECIFIED
:DEGREES
229
root 19.0175 16.7716 -10.081 29.7451 -47.6368 -13.3616
lowerback 21.3499 -3.32594 9.83015
upperback 14.2003 -3.37187 -2.40596
thorax 3.20065 -1.1768 -7.5755
lowerneck 6.10997 4.27481 2.28944
upperneck -18.7209 6.05665 -0.51673
head -6.61437 2.77634 -0.988545
rclavicle 3.49861e-014 -4.53229e-014
rhumerus -50.3005 14.4699 -90.4584
rradius 79.9793
rwrist 15.2222
rhand -45.8844 13.1707
rfingers 7.12502
rthumb -18.6345 -15.9568
lclavicle 3.49861e-014 -4.53229e-014
lhumerus 16.8805 -46.1928 67.2063
lradius 94.0409
lwrist 32.3679
lhand -35.3509 0.364008
lfingers 7.12502
lthumb -8.48346 30.1736
rfemur -18.7789 -1.54454 29.2015
rtibia 41.6975
rfoot -26.6752 -2.89632
rtoes -26.3083
lfemur -54.761 14.5063 -22.7227
ltibia 23.0013
lfoot 1.54424 11.5252
ltoes -2.49135
230
root 18.9659 16.7878 -9.97344 29.9661 -47.5944 -13.2904
lowerback 21.3899 -3.29554 9.72416
upperback 14.1445 -3.33877 -2.38683
thorax 3.12402 -1.1726 -7.49668
lowerneck 6.04391 4.22814 2.32085
upperneck -18.8725 5.98302 -0.579246
head -6.64924 2.74007 -1.00905
rclavicle -4.77083e-014 2.8625e-014
rhumerus -50.5175 14.6896 -90.422
rradius 79.7513
rwrist 15.0857
rhand -46.0194 13.2424
rfingers 7.12502
rthumb -18.7643 -15.8726
lclavicle -4.77083e-014 2.8625e-014
lhumerus 16.8382 -46.4902 67.192
lradius 94.2213
lwrist 32.2164
lhand -35.5106 0.115886
lfingers 7.12502
lthumb -8.63753 29.9192
rfemur -18.6508 -1.24463 28.9327
rtibia 41.5576
rfoot -26.0776 -2.81278
rtoes -26.7114
lfemur -55.0682 14.5266 -23.0012
ltibia 23.6502
lfoot 1.69392 11.015
ltoes -1.30196
231
root 18.9138 16.8106 -9.86113 30.0707 -47.6956 -13.2678
lowerback 21.5782 -3.23966 9.57198
upperback 14.1482 -3.27671 -2.40034
thorax 3.04829 -1.1561 -7.43093
lowerneck 5.91432 4.19725 2.33199
upperneck -19.0078 5.93263 -0.605245
head -6.66938 2.71379 -1.01434
rclavicle -1.74931e-014 -3.18055e-015
rhumerus -50.6313 14.8244 -90.4861
rradius 79.4999
rwrist 15.1127
rhand -46.2202 13.3013
rfingers 7.12502
rthumb -18.9575 -15.7949
lclavicle -1.74931e-014 -3.18055e-015
lhumerus 16.7554 -46.6063 67.4419
lradius 94.4129
lwrist 31.9236
lhand -35.2797 0.27386
lfingers 7.12502
lthumb -8.41467 30.0862
rfemur -18.4499 -0.854065 28.5881
rtibia 41.5726
rfoot -25.3904 -2.68218
rtoes -27.2304
lfemur -55.0963 14.2846 -22.8611
ltibia 24.3521
lfoot 1.5021 11.0618
ltoes 0.678897
232
root 18.8695 16.8192 -9.75752 30.2475 -47.6318 -13.0951
lowerback 21.5913 -3.23391 9.52444
upperback 14.0866 -3.26739 -2.43764
thorax 2.97085 -1.15641 -7.44412
lowerneck 5.85537 4.14219 2.37709
upperneck -19.1403 5.864 -0.584592
head -6.702 2.6721 -1.01092
rclavicle -5.24792e-014 5.725e-014
rhumerus -50.8476 15.1901 -90.4718
rradius 79.5464
rwrist 14.8282
rhand -46.3209 13.389
rfingers 7.12502
rthumb -19.0543 -15.6976
lclavicle -5.24792e-014 5.725e-014
lhumerus 16.8133 -46.9583 67.4733
lradius 94.4776
lwrist 31.6131
lhand -35.7384 -0.0427436
lfingers 7.12502
lthumb -8.85733 29.7514
rfemur -18.5952 -0.437011 28.229
rtibia 41.7979
rfoot -24.6927 -2.2486
rtoes -26.2219
lfemur -55.4688 14.1508 -23.1985
ltibia 25.0844
lfoot 1.55853 10.5717
ltoes 0.394986
233
root 18.8235 16.8348 -9.65498 30.4286 -47.7225 -13.1024
lowerback 21.7928 -3.20858 9.27006
upperback 14.0432 -3.25468 -2.39471
thorax 2.82699 -1.17793 -7.24461
lowerneck 5.8205 4.15625 2.23479
upperneck -19.2795 5.86547 -0.583565
head -6.74479 2.67976 -0.98899
rclavicle -3.33958e-014 7.39479e-014
rhumerus -50.9412 15.7048 -90.5042
rradius 79.4427
rwrist 14.6904
rhand -46.5232 13.5611
rfingers 7.12502
rthumb -19.2488 -15.5062
lclavicle -3.33958e-014 7.39479e-014
lhumerus 16.7485 -46.8887 67.6443
lradius 94.6021
lwrist 31.4482
lhand -35.6573 -0.00225484
lfingers 7.12502
lthumb -8.77909 29.7952
rfemur -18.7161 0.0496366 27.9288
rtibia 42.2017
rfoot -23.8324 -2.20577
rtoes -26.7856
lfemur -55.6165 13.9647 -23.1806
ltibia 25.812
lfoot 1.40197 10.559
ltoes 1.036
234
root 18.7786 16.8557 -9.53635 30.2796 -47.8507 -13.078
lowerback 22.2263 -3.15565 9.39091
upperback 14.121 -3.14284 -2.52817
thorax 2.7226 -1.1144 -7.47549
lowerneck 5.6405 4.04145 2.44272
upperneck -19.3499 5.73011 -0.552413
head -6.73286 2.59404 -0.999655
rclavicle 2.54444e-014 -2.3059e-014
rhumerus -50.9039 15.7324 -90.5544
rradius 79.4446
rwrist 14.5526
rhand -46.6356 13.5269
rfingers 7.12502
rthumb -19.3569 -15.5297
lclavicle 2.54444e-014 -2.3059e-014
lhumerus 17.1909 -47.1964 67.3897
lradius 94.6969
lwrist 31.3401
lhand -35.8839 -0.145815
lfingers 7.12502
lthumb -8.99778 29.6423
rfemur -18.6003 0.467541 27.5022
rtibia 42.8291
rfoot -22.9617 -1.96203
rtoes -26.9985
lfemur -55.2633 13.3888 -22.7385
ltibia 26.4837
lfoot 0.912654 11.1376
ltoes 3.02077
235
root 18.7371 16.8661 -9.44066 30.4169 -47.8815 -12.9734
lowerback 22.3733 -3.11787 9.2078
upperback 14.1034 -3.11127 -2.54779
thorax 2.63629 -1.11438 -7.39351
lowerneck 5.53037 4.02474 2.48597
upperneck -19.4591 5.71175 -0.535326
head -6.74828 2.57771 -0.998906
rclavicle -6.99722e-014 3.81667e-014
rhumerus -50.8531 16.164 -90.5413
rradius 79.5022
rwrist 14.3528
rhand -46.7738 13.4162
rfingers 7.12502
rthumb -19.4898 -15.627
lclavicle -6.99722e-014 3.81667e-014
lhumerus 17.5911 -47.1972 67.1069
lradius 94.7212
lwrist 31.2784
lhand -35.8865 -0.105453
lfingers 7.12502
lthumb -9.00026 29.6826
rfemur -19.045 0.950541 27.1638
rtibia 43.6945
rfoot -22.0134 -1.76008
rtoes -26.6885
lfemur -55.4881 13.2164 -22.8682
ltibia 27.1384
lfoot 0.727261 11.0307
ltoes 3.72489
236
root 18.6995 16.8709 -9.34845 30.4219 -47.9243 -12.6992
lowerback 22.4882 -3.07925 8.86448
upperback 14.0966 -3.10873 -2.50893
thorax 2.57493 -1.14004 -7.14929
lowerneck 5.49358 4.02335 2.37684
upperneck -19.5984 5.69156 -0.559729
head -6.78917 2.57471 -0.988794
rclavicle 6.04305e-014 1.06549e-013
rhumerus -50.668 16.6208 -90.3852
rradius 79.5801
rwrist 14.2456
rhand -46.8069 13.7527
rfingers 7.12502
rthumb -19.5216 -15.2872
lclavicle 6.04305e-014 1.06549e-013
lhumerus 18.0501 -47.1169 66.8219
lradius 94.7558
lwrist 31.3394
lhand -35.905 -0.151157
lfingers 7.12502
lthumb -9.0181 29.6361
rfemur -19.6382 1.35839 26.7205
rtibia 44.7769
rfoot -20.9653 -1.7293
rtoes -26.8543
lfemur -55.7207 13.1545 -23.3606
ltibia 27.7796
lfoot 0.680691 10.6955
ltoes 2.99803
237
root 18.6577 16.8771 -9.25835 30.6914 -47.9739 -12.6596
lowerback 22.3942 -2.97882 8.69204
upperback 14.1321 -3.02174 -2.49262
thorax 2.67866 -1.10265 -7.05509
lowerneck 5.43478 3.98821 2.44002
upperneck -19.7715 5.64397 -0.588882
head -6.83259 2.54513 -1.00637
rclavicle 1.43125e-014 1.35174e-014
rhumerus -50.3955 16.9819 -90.3012
rradius 79.6797
rwrist 14.3153
rhand -47.0872 13.3676
rfingers 7.12502
rthumb -19.7911 -15.6448
lclavicle 1.43125e-014 1.35174e-014
lhumerus 18.8161 -46.9866 66.256
lradius 94.8123
lwrist 31.5066
lhand -35.9499 -0.0623546
lfingers 7.12502
lthumb -9.06144 29.723
rfemur -20.4334 1.88717 26.4203
rtibia 46.1024
rfoot -19.9088 -1.46158
rtoes -25.6788
lfemur -56.0525 13.079 -23.5206
ltibia 28.4176
lfoot 0.408955 10.6063
ltoes 3.52487
238
root 18.6254 16.8846 -9.15807 30.6658 -48.0487 -12.7283
lowerback 22.8431 -2.96876 8.71503
upperback 14.176 -2.97713 -2.49239
thorax 2.52098 -1.08854 -7.06645
lowerneck 5.47373 3.96501 2.35376
upperneck -19.9509 5.60788 -0.569189
head -6.90101 2.528 -0.987392
rclavicle -2.06736e-014 1.11319e-014
rhumerus -50.1839 17.4014 -90.1241
rradius 79.9722
rwrist 14.0633
rhand -47.1348 13.2415
rfingers 7.12502
rthumb -19.8369 -15.7661
lclavicle -2.06736e-014 1.11319e-014
lhumerus 19.5468 -46.8234 65.6967
lradius 94.7733
lwrist 31.743
lhand -36.113 -0.0493248
lfingers 7.12502
lthumb -9.21879 29.7291
rfemur -20.9647 2.22727 26.145
rtibia 47.6239
rfoot -18.762 -1.38509
rtoes -25.5747
lfemur -55.9066 12.8754 -23.4266
ltibia 29.078
lfoot 0.00512767 10.7625
ltoes 4.08478
